<svg xmlns="http://www.w3.org/2000/svg" viewBox="0 0 431 436"><title>logo</title><rect width="431" height="436" fill="#03e0f2"/><path d="M217.36,299v41.31c0,14.14,7.61,21.75,21.75,21.75h28.27c14.13,0,21.74-7.61,21.74-21.75V0h73.94V355.57c0,51.11-27.73,75.05-78.29,80.43H223.89c-51.11-5.38-78.29-29.32-78.29-80.43V299Z" fill="#fff"/><path d="M430,260" fill="none" stroke="#03e0f2" stroke-miterlimit="10" stroke-width="4"/><path d="M146,32" fill="none" stroke="#03e0f2" stroke-miterlimit="10" stroke-width="4"/><path d="M430,257" fill="none" stroke="#03e0f2" stroke-miterlimit="10" stroke-width="4"/><path d="M146,29" fill="none" stroke="#03e0f2" stroke-miterlimit="10" stroke-width="4"/><path d="M430,254" fill="none" stroke="#03e0f2" stroke-miterlimit="10" stroke-width="4"/><path d="M146,26" fill="none" stroke="#03e0f2" stroke-miterlimit="10" stroke-width="4"/><path d="M430,265" fill="none" stroke="#03e0f2" stroke-miterlimit="10" stroke-width="4"/><path d="M146,37" fill="none" stroke="#03e0f2" stroke-miterlimit="10" stroke-width="4"/><path d="M430,331" fill="none" stroke="#03e0f2" stroke-miterlimit="10" stroke-width="4"/><path d="M146,103" fill="none" stroke="#03e0f2" stroke-miterlimit="10" stroke-width="4"/><path d="M430,332" fill="none" stroke="#03e0f2" stroke-miterlimit="10" stroke-width="4"/><path d="M146,104" fill="none" stroke="#03e0f2" stroke-miterlimit="10" stroke-width="4"/><path d="M364.67,342.33" fill="none" stroke="#03e0f2" stroke-miterlimit="10" stroke-width="4"/><path d="M146,166" fill="none" stroke="#03e0f2" stroke-miterlimit="10" stroke-width="4"/><path d="M364,337.67" fill="none" stroke="#03e0f2" stroke-miterlimit="10" stroke-width="4"/><path d="M146,161" fill="none" stroke="#03e0f2" stroke-miterlimit="10" stroke-width="4"/><path d="M379.33,356" fill="none" stroke="#03e0f2" stroke-miterlimit="10" stroke-width="4"/><path d="M146,170" fill="none" stroke="#03e0f2" stroke-miterlimit="10" stroke-width="4"/></svg>